<svg width="68" height="38" viewBox="0 0 68 38" fill="none" xmlns="http://www.w3.org/2000/svg">
<path d="M0 37.1557C0.791806 36.7785 1.46766 36.2001 1.95822 35.48C2.47704 34.7351 2.7365 33.7107 2.73662 32.4069V7.26345C2.73662 6.14603 2.50856 5.16826 2.05242 4.33015C1.60891 3.50324 0.881313 2.85936 0.000182111 2.51404V2.37432H18.967C19.9236 2.38823 20.8748 2.23046 21.7743 1.9087C22.5687 1.62655 23.2646 1.12566 23.7795 0.465332H23.9683L25.9499 12.3853L25.7612 12.4784C24.6714 10.9274 23.4981 9.43528 22.2462 8.00842C21.0666 6.6742 19.8397 5.60332 18.5656 4.79578C17.3389 4.00267 15.9036 3.58179 14.4371 3.58519C13.4617 3.58519 12.7383 3.89557 12.2667 4.51635C11.7951 5.13712 11.5592 6.11492 11.559 7.44973V17.4603H12.3068C13.8793 17.4603 15.3026 17.1421 16.5768 16.5058C17.851 15.8694 18.9598 14.7287 19.9033 13.0836H20.0446V23.5135H19.9033C18.9278 22.0861 17.8033 20.9764 16.5296 20.1845C15.2825 19.4004 13.8326 18.9881 12.354 18.9971H11.559V32.4067C11.559 33.7105 11.8185 34.7349 12.3375 35.4798C12.8277 36.2002 13.5035 36.7788 14.2955 37.1559V37.2956H0V37.1557Z" fill="#EEEEEE"/>
<path d="M41.5285 22.2629C41.5285 20.3074 41.1119 18.5923 40.2786 17.1175C39.4895 15.6899 38.3238 14.4995 36.9049 13.6723C35.4892 12.8506 33.9006 12.4394 32.1392 12.4388C30.5889 12.426 29.0587 12.7854 27.6805 13.4862C26.2977 14.1966 25.0836 15.1885 24.1183 16.3965C23.0849 17.6876 22.3011 19.1553 21.806 20.7264C21.2627 22.4283 20.9922 24.2034 21.0043 25.9877C21.0043 27.9747 21.2952 29.7129 21.877 31.2023C22.4592 32.693 23.2534 33.9502 24.2595 34.9739C25.2091 35.96 26.3586 36.7375 27.633 37.2557C28.9463 37.7874 30.3586 38.0394 31.7774 37.9952C33.1962 37.9511 34.5895 37.6118 35.8662 36.9995C37.2725 36.3141 38.4935 35.3086 39.4285 34.0658C40.4197 32.7784 41.1039 31.2341 41.481 29.433L41.1985 29.2936C40.6764 30.3045 39.8529 31.1331 38.8389 31.668C37.8282 32.2201 36.6915 32.5085 35.5363 32.506C34.3306 32.5233 33.1529 32.1468 32.1865 31.4352C31.2107 30.7213 30.44 29.6116 29.8742 28.1059C29.3795 26.7906 29.101 25.1378 29.0387 23.1476H41.5285V22.2629ZM29.0279 21.7037C29.0506 18.9831 29.2462 17.0043 29.6146 15.7672C30.0082 14.4482 30.5508 13.7886 31.2426 13.7883C31.7146 13.7883 32.0842 14.0679 32.3515 14.6271C32.6187 15.1855 32.8231 16.0468 32.9646 17.2111C33.1061 18.3753 33.1769 19.8729 33.1769 21.7037H29.0279Z" fill="#EEEEEE"/>
<path d="M67.9994 33.4777C67.0296 34.7769 65.8114 35.8761 64.4136 36.7134C62.9984 37.5666 61.3473 37.9934 59.4602 37.9937C58.4525 37.9998 57.4552 37.7935 56.5348 37.3886C55.6521 37.0099 54.8928 36.3975 54.341 35.6192C53.7898 34.8433 53.5143 33.9122 53.5145 32.8258V14.9461H51.5102V32.8717C51.5102 33.866 51.6833 34.7351 52.0295 35.479C52.3757 36.2243 52.8476 36.7832 53.4452 37.1557V37.2951H41.1307V37.1557C41.7719 36.7381 42.2791 36.1486 42.5928 35.4565C42.939 34.7274 43.1121 33.8657 43.1121 32.8717V8.56721C43.1158 7.65299 42.9229 6.74841 42.5463 5.91316C42.1683 5.07523 41.6177 4.45428 40.8945 4.0503V3.91094C43.527 3.80973 46.108 3.1592 48.4672 2.00222C49.647 1.41243 50.5985 0.745027 51.3215 0H51.5101V14.1046C53.4195 12.9344 55.2053 11.5784 56.8408 10.057C58.7742 8.25856 60.5064 6.26047 62.0074 4.09705H62.1486V11.3633H67.1982V14.9461H62.1492V31.2884C62.1492 32.1893 62.3693 32.9034 62.8097 33.4309C63.25 33.9584 63.9108 34.2221 64.7921 34.2221C65.2883 34.2135 65.7807 34.1351 66.2544 33.9892C66.8295 33.8175 67.3835 33.5832 67.9061 33.2906L67.9994 33.4777Z" fill="#EEEEEE"/>
</svg>
