<?xml version="1.0" encoding="UTF-8" standalone="no"?>
<svg
   version="1.1"
   x="0px"
   y="0px"
   viewBox="0 0 100 125"
   enable-background="new 0 0 100 100"
   xml:space="preserve"
   id="svg215"
   sodipodi:docname="walk.svg"
   inkscape:version="1.1 (c68e22c387, 2021-05-23)"
   xmlns:inkscape="http://www.inkscape.org/namespaces/inkscape"
   xmlns:sodipodi="http://sodipodi.sourceforge.net/DTD/sodipodi-0.dtd"
   xmlns="http://www.w3.org/2000/svg"
   xmlns:svg="http://www.w3.org/2000/svg"><defs
     id="defs219" /><sodipodi:namedview
     id="namedview217"
     pagecolor="#505050"
     bordercolor="#eeeeee"
     borderopacity="1"
     inkscape:pageshadow="0"
     inkscape:pageopacity="0"
     inkscape:pagecheckerboard="0"
     showgrid="false"
     inkscape:zoom="6.656"
     inkscape:cx="49.954928"
     inkscape:cy="62.5"
     inkscape:window-width="1920"
     inkscape:window-height="1018"
     inkscape:window-x="-6"
     inkscape:window-y="-6"
     inkscape:window-maximized="1"
     inkscape:current-layer="svg215" /><path
     d="M42.8,21.3c-1.5,1.3-16.6,12.9-16.6,12.9c-0.6,0.5-1.2,1.5-1.2,2.3c0,0,0,10.7,0,15.4c0,4.7,6.4,4.5,6.4-0.1  c0-4.5,0-11.1,0-11.1c0-0.8,0.5-1.8,1.1-2.3l8-6.3c0.6-0.5,1.1-0.2,1.1,0.6v19.4c0,0.8,0.5,1.9,1.1,2.4L61.1,69  c0.6,0.5,1.3,1.5,1.6,2.3c0,0,4.9,13.9,7,20c2.1,6.1,9.9,3.6,8.1-2.7C76.7,85,70,66.2,70,66.2c-0.3-0.8-1-1.8-1.6-2.3L54.1,52  c0,0,0-21.3,0-24.4C54.1,24.6,44.3,20,42.8,21.3z M42,58.8c0,0-15,23-19,28.8c-4,5.8,3.8,10.4,7.2,5.3c3.4-5.1,18.5-28.9,18.5-28.9  L42,58.8z M57.1,47.7c0,0,4.9,4,8.4,7.1c3.5,3.1,7.7-2,4.1-5.2S57.1,39.1,57.1,39.1V47.7z M42.2,10.2c0,6.9,7,9.9,10.1,9.9  c2.4,0,5.4-0.3,5.4-6.2S56.2,5,49.2,5C46.9,5,42.2,5.6,42.2,10.2z"
     id="path209" /></svg>
