<?xml version="1.0" encoding="UTF-8" standalone="no"?>
<svg
   version="1.1"
   x="0px"
   y="0px"
   viewBox="0 0 100 125"
   enable-background="new 0 0 100 100"
   xml:space="preserve"
   id="svg27"
   sodipodi:docname="run.svg"
   inkscape:version="1.1 (c68e22c387, 2021-05-23)"
   xmlns:inkscape="http://www.inkscape.org/namespaces/inkscape"
   xmlns:sodipodi="http://sodipodi.sourceforge.net/DTD/sodipodi-0.dtd"
   xmlns="http://www.w3.org/2000/svg"
   xmlns:svg="http://www.w3.org/2000/svg"><defs
     id="defs31" /><sodipodi:namedview
     id="namedview29"
     pagecolor="#505050"
     bordercolor="#eeeeee"
     borderopacity="1"
     inkscape:pageshadow="0"
     inkscape:pageopacity="0"
     inkscape:pagecheckerboard="0"
     showgrid="false"
     inkscape:zoom="6.48"
     inkscape:cx="49.92284"
     inkscape:cy="62.5"
     inkscape:window-width="1920"
     inkscape:window-height="1018"
     inkscape:window-x="-6"
     inkscape:window-y="-6"
     inkscape:window-maximized="1"
     inkscape:current-layer="svg27" /><path
     d="M56.3,18.2c-2.6,0-28.1,0-32.5,0s-5.3,7.1,0,7.1h23.7c0.9,0,1.2,0.6,0.8,1.3c0,0-6,10.8-8.3,14.3c-2.3,3.5-1.1,9,1.7,11  C49.1,57.4,60.5,66,60.5,66c0.7,0.5,1.2,1.6,1.2,2.4c0,0,0,15.2,0,21.7c0,6.5,9.6,6.2,9.6,0c0-4.9,0-27.1,0-27.1  c0-0.8-0.5-1.9-1.2-2.5L53.8,48.5C53.2,48,53,47,53.4,46.3l10.2-17.9C63.5,28.4,58.9,18.2,56.3,18.2z M38.1,53.8l-8.6,12.1  c0,0-4.4-3.1-9.5-7.2c-5-4.1-10.9,2.8-5.8,6.8c2.6,2,6.8,5.2,10.3,8c3.6,2.8,9,3.2,12.6-2.1c5.2-7.8,8.2-12,8.2-12L38.1,53.8z   M61.2,39.8c0,0,4.8,7,6.8,10.1c2.1,3,6.7,2.3,9.8,0c3.1-2.3,6.1-4.3,8.3-6c3.6-2.7-0.1-8.6-3.9-6c-4.7,3.3-7.7,5.7-7.7,5.7  c-0.6,0.5-1.5,0.4-2-0.4L65.9,32L61.2,39.8z M61.8,7.5c-3.7,6.2,0.9,12.7,3.8,14.4c2.1,1.3,5.1,2.6,8.3-2.7s3.3-8.8-3-12.6  C68.8,5.4,64.3,3.3,61.8,7.5z"
     id="path21" /></svg>
